<?xml version="1.0" encoding="UTF-8"?>
<svg width="377px" height="56px" viewBox="0 0 377 56" version="1.1" xmlns="http://www.w3.org/2000/svg" xmlns:xlink="http://www.w3.org/1999/xlink">
    <!-- Generator: Sketch 42 (36781) - http://www.bohemiancoding.com/sketch -->
    <title>logo-rangleio</title>
    <desc>Created with Sketch.</desc>
    <defs></defs>
    <g id="Page-1" stroke="none" stroke-width="1" fill="none" fill-rule="evenodd">
        <g id="logo-rangleio" fill-rule="nonzero">
            <path d="M7.1,51.3 C7.1,52.5 7.1,53.3 6.6,54 C6.1,54.7 5,55.2 3.5,55.2 C2,55.2 1,54.7 0.5,54 C0,53.3 0,52.4 0,51.3 L0,6.2 C0,4 0,2.4 3.6,1.6 C5.3,1.2 8.2,0.9 11.6,0.9 C15.8,0.9 20.6,1.4 24.4,3.4 C29.2,5.9 31.9,10.2 31.9,16.1 C31.9,22.9 28.2,28.1 21.4,30.8 L36.3,51.3 C37.6,53.1 37.3,55.3 33.5,55.3 C30.5,55.3 29.6,54 28.3,52.1 L18.6,38.2 C16,34.6 14.7,32.2 14.7,32.2 C14.7,32.2 13,32.4 10.4,32.4 C8.2,32.4 7.3,32.2 7.3,32.2 L7.3,51.3 L7.1,51.3 L7.1,51.3 Z M7.1,26.4 C7.1,26.4 8.2,26.6 10.3,26.6 C19.2,26.6 24.3,23.5 24.3,16.5 C24.3,9.1 18.4,7 11.9,7 C9.2,7 7.1,7.3 7.1,7.3 L7.1,26.4 L7.1,26.4 Z M103.8,51.3 C103.8,52.5 103.8,53.3 103.3,54 C102.6,55 101.4,55.2 100.4,55.2 C99,55.2 98,54.8 97.4,54 C96.9,53.3 96.9,52.4 96.9,51.3 L96.9,3.8 C96.9,1.8 98.1,0.7 100.2,0.7 C102.6,0.7 103.7,2 105.5,4.3 L135.7,42.3 L135.7,4.8 C135.7,3.6 135.7,2.8 136.2,2.1 C136.9,1.1 138.1,0.9 139.1,0.9 C140.5,0.9 141.5,1.3 142.1,2.1 C142.6,2.8 142.6,3.7 142.6,4.8 L142.6,52.4 C142.6,54.3 141.5,55.4 139.4,55.4 C137.2,55.4 136.2,54.2 134.3,51.9 L103.8,13.5 L103.8,51.3 L103.8,51.3 Z M200.2,47.7 C200.2,50.3 199.5,51.6 195.3,53.1 C191.3,54.6 186.8,55.5 181.9,55.5 C166,55.5 153.3,46.2 153.3,27.7 C153.3,7.8 168.1,0.1 181.9,0.1 C187.1,0.1 192.2,1.2 196.5,3.5 C198.9,4.8 199.9,5.8 199.9,7.2 C199.9,8.8 198.7,10.8 197,10.8 C195.6,10.8 194.3,9.5 191.1,8.2 C188.8,7.3 185.3,6.4 181.3,6.4 C171.5,6.4 160.7,11.9 160.7,27.3 C160.7,41.9 170.3,49.1 181.9,49.1 C188.5,49.1 193,46.8 193,46.8 L193,37.4 C193,36.2 193,35.4 193.5,34.7 C194,34 195.2,33.5 196.6,33.5 C198.1,33.5 199.3,34 199.8,34.7 C200.3,35.4 200.3,36.3 200.3,37.4 L200.3,47.7 L200.2,47.7 L200.2,47.7 Z M237.5,48.4 C238.6,48.4 239.4,48.5 240.2,49 C240.9,49.5 241.3,50.3 241.3,51.6 C241.3,52.9 240.9,53.7 240.2,54.2 C239.5,54.7 238.6,54.8 237.5,54.8 L215.4,54.8 C212.7,54.8 211.9,53.6 211.9,51.3 L211.9,4.8 C211.9,3.6 211.9,2.8 212.4,2.1 C212.9,1.4 214.1,0.9 215.5,0.9 C217,0.9 218.2,1.4 218.7,2.1 C219.2,2.8 219.2,3.7 219.2,4.8 L219.2,48.4 L237.5,48.4 Z M256.4,22.8 L269.4,22.8 C270.5,22.8 271.3,22.9 272.1,23.4 C272.8,23.9 273.2,24.7 273.2,26 C273.2,27.3 272.8,28.1 272.1,28.6 C271.4,29.1 270.5,29.2 269.4,29.2 L256.4,29.2 L256.4,48.4 L274.8,48.4 C275.9,48.4 276.7,48.5 277.5,49 C278.2,49.5 278.6,50.3 278.6,51.6 C278.6,52.9 278.2,53.7 277.5,54.2 C276.8,54.7 275.9,54.8 274.8,54.8 L252.7,54.8 C250,54.8 249.2,53.7 249.2,51.3 L249.2,4.9 C249.2,2.4 250.2,1.4 252.7,1.4 L272.4,1.4 C273.5,1.4 274.3,1.5 275.1,2 C275.8,2.5 276.2,3.3 276.2,4.6 C276.2,5.9 275.8,6.7 275.1,7.2 C274.4,7.7 273.5,7.8 272.4,7.8 L256.4,7.8 L256.4,22.8 Z" id="Shape" fill="#422D3F"></path>
            <path d="M290.7,55.5 C288,55.5 286.2,53.7 286.2,51 C286.2,48.4 288,46.6 290.7,46.6 C293.3,46.6 295.1,48.5 295.1,51 C295.1,53.7 293.3,55.5 290.7,55.5 Z M310.7,51.3 C310.7,52.5 310.7,53.3 310.2,54 C309.7,54.7 308.5,55.2 307.1,55.2 C305.6,55.2 304.4,54.7 303.9,54 C303.4,53.3 303.4,52.4 303.4,51.3 L303.4,4.8 C303.4,3.6 303.4,2.8 303.9,2.1 C304.4,1.4 305.6,0.9 307,0.9 C308.5,0.9 309.7,1.4 310.2,2.1 C310.7,2.8 310.7,3.7 310.7,4.8 L310.7,51.3 Z M349,0 C365.9,0 376.6,11.6 376.6,27.9 C376.6,44.4 365.7,55.9 348.8,55.9 C331.9,55.9 321.2,44.3 321.2,28 C321.2,11.5 332.1,0 349,0 Z M349,49.8 C361.3,49.8 369.1,41.8 369.1,28 C369.1,14.1 361.1,6.1 348.8,6.1 C336.5,6.1 328.7,14.1 328.7,27.9 C328.7,41.8 336.6,49.8 349,49.8 Z" id="Shape" fill="#E6383A"></path>
            <path d="M88.1,50.7 L70.3,4.8 C69.3,2.3 68.5,0.7 66,0.7 C63.4,0.7 62.5,2.4 61.5,4.9 L42.9,50.8 C42.5,51.9 42.3,52.5 42.3,53 C42.3,54.3 43.2,55.2 45.5,55.2 C48.3,55.2 49,53.8 49.8,51.7 L52.6,44.6 L52.8,44 L55.5,37.1 L58.7,28.8 L65.6,11.3 L73.1,31 L62.7,31 C62.5,31 62.4,31.1 62.3,31.2 L60.2,36.6 C60.1,36.8 60.3,37.1 60.6,37.1 L75.4,37.1 L81,51.7 C81.9,54.1 82.8,55.2 85.4,55.2 C87.7,55.2 88.8,54.3 88.8,52.9 C88.7,52.4 88.5,51.5 88.1,50.7 L88.1,50.7 Z" id="Shape" fill="#422D3F"></path>
        </g>
    </g>
</svg>